<svg xmlns="http://www.w3.org/2000/svg" viewBox="0 0 1080 420" role="img" aria-labelledby="title desc">
  <title id="title">POC Serving Component View</title>
  <desc id="desc">POC request path from client to control plane to Jetson agent proxy to llama-server.</desc>
  <defs>
    <marker id="arrow" markerWidth="10" markerHeight="10" refX="9" refY="3" orient="auto" markerUnits="strokeWidth">
      <path d="M0,0 L0,6 L9,3 z" fill="#334155"/>
    </marker>
  </defs>
  <style>
    .bg { fill: #f8fafc; }
    .title { font: 700 24px Arial, sans-serif; fill: #0f172a; }
    .box { fill: #ffffff; stroke: #334155; stroke-width: 1.5; rx: 8; }
    .jetson { fill: #eef2ff; stroke: #475569; stroke-width: 1.5; rx: 10; }
    .label { font: 700 15px Arial, sans-serif; fill: #0f172a; }
    .small { font: 13px Arial, sans-serif; fill: #334155; }
    .arrow { stroke: #334155; stroke-width: 1.7; fill: none; marker-end: url(#arrow); }
  </style>

  <rect class="bg" width="1080" height="420"/>
  <text class="title" x="40" y="44">POC Serving Component View</text>
  <text class="small" x="40" y="68">One real model runs on one Jetson. Control routes requests to the agent proxy; the agent calls the node-local runtime.</text>

  <rect class="box" x="45" y="150" width="160" height="72"/>
  <text class="label" x="91" y="180">Client</text>
  <text class="small" x="72" y="202">OpenAI API shape</text>

  <rect class="box" x="270" y="130" width="210" height="112"/>
  <text class="label" x="310" y="162">Control Plane</text>
  <text class="small" x="302" y="187">model metadata</text>
  <text class="small" x="302" y="207">routing decision</text>
  <text class="small" x="302" y="227">benchmark record</text>

  <rect class="jetson" x="600" y="95" width="395" height="210"/>
  <text class="label" x="628" y="128">Jetson: dopey</text>
  <rect class="box" x="630" y="155" width="155" height="72"/>
  <text class="label" x="662" y="185">Agent</text>
  <text class="small" x="653" y="207">proxy + heartbeat</text>
  <rect class="box" x="820" y="155" width="145" height="72"/>
  <text class="label" x="847" y="185">llama-server</text>
  <text class="small" x="850" y="207">full model</text>
  <text class="small" x="630" y="270">Advertises: node_name=dopey, base_url=http://dopey:52416, model=qwen...</text>

  <path class="arrow" d="M205 186 H270"/>
  <text class="small" x="214" y="176">chat request</text>

  <path class="arrow" d="M480 186 H630"/>
  <text class="small" x="520" y="176">route to backend</text>

  <path class="arrow" d="M785 191 H820"/>
  <text class="small" x="790" y="178">proxy</text>

  <path class="arrow" d="M630 235 H480"/>
  <text class="small" x="516" y="253">heartbeat</text>
</svg>
