<svg xmlns="http://www.w3.org/2000/svg" viewBox="0 0 1080 470" role="img" aria-labelledby="title desc">
  <title id="title">Future Layer Split Component View</title>
  <desc id="desc">Control plans layer split routes while future runtime workers exchange activation tensors directly.</desc>
  <defs>
    <marker id="arrow" markerWidth="10" markerHeight="10" refX="9" refY="3" orient="auto" markerUnits="strokeWidth">
      <path d="M0,0 L0,6 L9,3 z" fill="#334155"/>
    </marker>
    <marker id="tensor-arrow" markerWidth="10" markerHeight="10" refX="9" refY="3" orient="auto" markerUnits="strokeWidth">
      <path d="M0,0 L0,6 L9,3 z" fill="#9a3412"/>
    </marker>
  </defs>
  <style>
    .bg { fill: #f8fafc; }
    .title { font: 700 24px Arial, sans-serif; fill: #0f172a; }
    .box { fill: #ffffff; stroke: #334155; stroke-width: 1.5; rx: 8; }
    .node { fill: #eef2ff; stroke: #475569; stroke-width: 1.5; rx: 10; }
    .runtime { fill: #fff7ed; stroke: #9a3412; stroke-width: 1.5; rx: 8; }
    .label { font: 700 15px Arial, sans-serif; fill: #0f172a; }
    .small { font: 13px Arial, sans-serif; fill: #334155; }
    .arrow { stroke: #334155; stroke-width: 1.7; fill: none; marker-end: url(#arrow); }
    .tensor { stroke: #9a3412; stroke-width: 2; fill: none; marker-end: url(#tensor-arrow); }
  </style>

  <rect class="bg" width="1080" height="470"/>
  <text class="title" x="40" y="44">Future Layer-Split Component View</text>
  <text class="small" x="40" y="68">Control plans and observes. Runtime workers own layer execution and activation tensor transport.</text>

  <rect class="box" x="45" y="185" width="160" height="70"/>
  <text class="label" x="91" y="215">Client</text>
  <text class="small" x="72" y="237">chat request</text>

  <rect class="box" x="270" y="160" width="210" height="120"/>
  <text class="label" x="310" y="192">Control Plane</text>
  <text class="small" x="300" y="217">plans stage ranges</text>
  <text class="small" x="300" y="237">selects nodes</text>
  <text class="small" x="300" y="257">records benchmark</text>

  <rect class="node" x="575" y="105" width="190" height="245"/>
  <text class="label" x="604" y="136">Jetson: dopey</text>
  <rect class="box" x="605" y="160" width="130" height="55"/>
  <text class="small" x="638" y="193">Agent</text>
  <rect class="runtime" x="605" y="245" width="130" height="70"/>
  <text class="small" x="622" y="276">Runtime A</text>
  <text class="small" x="624" y="296">layers 0..N</text>

  <rect class="node" x="835" y="105" width="190" height="245"/>
  <text class="label" x="862" y="136">Jetson: grumpy</text>
  <rect class="box" x="865" y="160" width="130" height="55"/>
  <text class="small" x="898" y="193">Agent</text>
  <rect class="runtime" x="865" y="245" width="130" height="70"/>
  <text class="small" x="882" y="276">Runtime B</text>
  <text class="small" x="881" y="296">layers N+1..end</text>

  <path class="arrow" d="M205 220 H270"/>
  <text class="small" x="214" y="210">request</text>

  <path class="arrow" d="M480 200 H605"/>
  <text class="small" x="506" y="190">stage plan</text>

  <path class="arrow" d="M480 240 H865"/>
  <text class="small" x="640" y="230">stage plan</text>

  <path class="arrow" d="M670 215 V245"/>
  <path class="arrow" d="M930 215 V245"/>

  <path class="tensor" d="M735 280 H865"/>
  <text class="small" x="760" y="270">activation tensor</text>

  <path class="arrow" d="M605 335 H480"/>
  <text class="small" x="512" y="354">response + stage metadata</text>
</svg>
