<svg xmlns="http://www.w3.org/2000/svg" viewBox="0 0 1120 620" role="img" aria-labelledby="title desc">
  <title id="title">Future Layer Split Sequence</title>
  <desc id="desc">Control starts a route and runtime workers exchange activation tensors directly.</desc>
  <defs>
    <marker id="arrow" markerWidth="10" markerHeight="10" refX="9" refY="3" orient="auto" markerUnits="strokeWidth">
      <path d="M0,0 L0,6 L9,3 z" fill="#334155"/>
    </marker>
    <marker id="tensor-arrow" markerWidth="10" markerHeight="10" refX="9" refY="3" orient="auto" markerUnits="strokeWidth">
      <path d="M0,0 L0,6 L9,3 z" fill="#9a3412"/>
    </marker>
  </defs>
  <style>
    .bg { fill: #f8fafc; }
    .title { font: 700 24px Arial, sans-serif; fill: #0f172a; }
    .head { fill: #ffffff; stroke: #334155; stroke-width: 1.5; rx: 8; }
    .future { fill: #fff7ed; stroke: #9a3412; stroke-width: 1.5; rx: 8; }
    .lane { stroke: #94a3b8; stroke-width: 1.2; stroke-dasharray: 6 5; }
    .arrow { stroke: #334155; stroke-width: 1.6; fill: none; marker-end: url(#arrow); }
    .tensor { stroke: #9a3412; stroke-width: 2; fill: none; marker-end: url(#tensor-arrow); }
    .label { font: 700 14px Arial, sans-serif; fill: #0f172a; }
    .text { font: 13px Arial, sans-serif; fill: #334155; }
    .note { fill: #fef3c7; stroke: #d97706; stroke-width: 1.2; rx: 6; }
  </style>

  <rect class="bg" width="1120" height="620"/>
  <text class="title" x="40" y="44">Future Layer-Split Runtime Path</text>

  <rect class="head" x="40" y="85" width="130" height="48"/>
  <text class="label" x="82" y="115">Client</text>
  <rect class="head" x="225" y="85" width="150" height="48"/>
  <text class="label" x="250" y="115">Control</text>
  <rect class="head" x="450" y="85" width="150" height="48"/>
  <text class="label" x="481" y="115">Agent A</text>
  <rect class="future" x="665" y="85" width="150" height="48"/>
  <text class="label" x="690" y="115">Runtime A</text>
  <rect class="future" x="880" y="85" width="150" height="48"/>
  <text class="label" x="905" y="115">Runtime B</text>

  <line class="lane" x1="105" y1="133" x2="105" y2="570"/>
  <line class="lane" x1="300" y1="133" x2="300" y2="570"/>
  <line class="lane" x1="525" y1="133" x2="525" y2="570"/>
  <line class="lane" x1="740" y1="133" x2="740" y2="570"/>
  <line class="lane" x1="955" y1="133" x2="955" y2="570"/>

  <rect class="note" x="420" y="155" width="500" height="42"/>
  <text class="text" x="444" y="181">Control plans and observes; it does not relay activation tensors.</text>

  <path class="arrow" d="M105 230 H300"/>
  <text class="text" x="128" y="222">POST /v1/chat/completions</text>

  <path class="arrow" d="M300 285 C250 285 250 325 300 325"/>
  <text class="text" x="322" y="310">plan pipeline_parallel route</text>

  <path class="arrow" d="M300 370 H525"/>
  <text class="text" x="354" y="362">start route on first stage</text>

  <path class="arrow" d="M525 420 H740"/>
  <text class="text" x="555" y="412">RunPrefillStage: layers 0..N</text>

  <path class="tensor" d="M740 470 H955"/>
  <text class="text" x="768" y="462">activation tensor bytes + metadata</text>

  <path class="arrow" d="M955 520 H300"/>
  <text class="text" x="586" y="512">final token/result + stage metadata</text>

  <path class="arrow" d="M300 560 H105"/>
  <text class="text" x="126" y="552">response with route metadata</text>
</svg>
